<svg width="16" height="16" viewBox="0 0 16 16" fill="none" xmlns="http://www.w3.org/2000/svg">
  <rect width="16" height="16" rx="4" fill="url(#gradient16)"/>
  <path d="M8 4C8.27614 4 8.5 4.22386 8.5 4.5V7H11C11.2761 7 11.5 7.22386 11.5 7.5V8.5C11.5 8.77614 11.2761 9 11 9H8.5V11.5C8.5 11.7761 8.27614 12 8 12C7.72386 12 7.5 11.7761 7.5 11.5V9H5C4.72386 9 4.5 8.77614 4.5 8.5V7.5C4.5 7.22386 4.72386 7 5 7H7.5V4.5C7.5 4.22386 7.72386 4 8 4Z" fill="white"/>
  <defs>
    <linearGradient id="gradient16" x1="0" y1="0" x2="16" y2="16" gradientUnits="userSpaceOnUse">
      <stop stop-color="#4F81FD"/>
      <stop offset="1" stop-color="#2563EB"/>
    </linearGradient>
  </defs>
</svg>