<svg width="32" height="32" viewBox="0 0 32 32" fill="none" xmlns="http://www.w3.org/2000/svg">
  <rect width="32" height="32" rx="8" fill="url(#gradient)"/>
  <path d="M16 8C16.5523 8 17 8.44772 17 9V14H22C22.5523 14 23 14.4477 23 15V17C23 17.5523 22.5523 18 22 18H17V23C17 23.5523 16.5523 24 16 24C15.4477 24 15 23.5523 15 23V18H10C9.44772 18 9 17.5523 9 17V15C9 14.4477 9.44772 14 10 14H15V9C15 8.44772 15.4477 8 16 8Z" fill="white"/>
  <defs>
    <linearGradient id="gradient" x1="0" y1="0" x2="32" y2="32" gradientUnits="userSpaceOnUse">
      <stop stop-color="#4F81FD"/>
      <stop offset="1" stop-color="#2563EB"/>
    </linearGradient>
  </defs>
</svg>